# xmcd
#
# Track frame offsets:
#	182
#	19762
#	47370
#	64620
#	87095
#	109027
#	135582
#	156232
#	169212
#	189327
#	207017
#	221360
#	239052
#
# Disc length: 3426 seconds
#
# Revision: 2
# Processed by: cddbd v1.5.2PL0 Copyright (c) Steve Scherf et al.
# Submitted via: audiograbber 1.83.01
#
DISCID=a80d600d
DTITLE=Nina Simone - Dejavu
DYEAR=1988
DGENRE=
TTITLE0=House of the Rising Sun
TTITLE1=Gin House Blues
TTITLE2=Don't Let Me Be Misunderstood
TTITLE3=He Was Too Good to Me
TTITLE4=When I Was a Young Girl
TTITLE5=Brown Baby
TTITLE6=Just in Time
TTITLE7=Zungo
TTITLE8=The Way I Love You (D.R.)
TTITLE9=Backlash Blues
TTITLE10=Please Read Me
TTITLE11=See-Line Woman
TTITLE12=If He Changed My Name
EXTD=
EXTT0=
EXTT1=
EXTT2=
EXTT3=
EXTT4=
EXTT5=
EXTT6=
EXTT7=
EXTT8=
EXTT9=
EXTT10=
EXTT11=
EXTT12=
PLAYORDER=
